<?xml version="1.0" encoding="utf-8"?>
<!-- Generator: Adobe Illustrator 21.0.1, SVG Export Plug-In . SVG Version: 6.00 Build 0)  -->
<svg version="1.1" id="Layer_1" xmlns="http://www.w3.org/2000/svg" xmlns:xlink="http://www.w3.org/1999/xlink" x="0px" y="0px"
	 viewBox="0 0 232.52 308.391" enable-background="new 0 0 232.52 308.391" xml:space="preserve">
<path fill="#282C37" d="M129.724,102.797H26.926V0h102.797V102.797z M129.724,205.594H26.926v102.797h102.797V205.594z
	 M232.52,102.797H129.724v102.797H232.52V102.797z M106.443,150.961L89.18,120.919c-1.374-2.393-4.43-3.22-6.826-1.844
	c-2.394,1.375-3.22,4.432-1.844,6.826c0,0,8.399,14.616,13.733,23.899H0v10h94.243L80.51,183.699
	c-1.376,2.395-0.551,5.45,1.844,6.826c0.785,0.451,1.642,0.666,2.486,0.666c1.732,0,3.416-0.9,4.34-2.51l18.031-31.376
	C108.655,154.809,107.581,152.94,106.443,150.961z"/>
</svg>
