<svg xmlns="http://www.w3.org/2000/svg" viewBox="0 0 294.7 160.5">
<g>
	<path fill="#d9e1e8" d="M291.9,0h-13.3c-1.7,0-3,1.3-3,3v1.2h-45.7c-0.1,0-0.1,0-0.2,0l0,0l0,0c-0.1,0-0.1,0-0.2,0c-6.9,0-12.5,5.6-12.5,12.5v30.2
		h-0.8c-1.7,0-3,1.3-3,3v13.3c0,1.7,1.3,3,3,3h0.8v16.1c0,0.5-0.4,0.8-0.8,0.8h-28.8c-0.5,0-0.8-0.4-0.8-0.8V64.9
		c0-5.1-3-9.6-7.7-11.6c-1.6-0.7-3.2-1-4.9-1h-15.2v-0.7c0-1.7-1.3-3-3-3h-13.3c-1.7,0-3,1.3-3,3v0.8H123c-6.9,0-12.5,5.6-12.5,12.5
		v65.8c0,0.5-0.4,0.8-0.8,0.8H107v-1c0-1.7-1.3-3-3-3H90.7c-1.7,0-3,1.3-3,3v1H19.3v-1c0-1.7-1.3-3-3-3H3c-1.7,0-3,1.3-3,3v27
		c0,1.7,1.3,3,3,3h13.3c1.7,0,3-1.3,3-3v-1h68.1v1c0,1.7,1.3,3,3,3h13.3c1.7,0,3-1.3,3-3v-1h16.1c6.9,0,12.5-5.6,12.5-12.5v-0.1
		v-0.1V78.1c0-0.5,0.4-0.8,0.8-0.8h3.2v1.1c0,1.7,1.3,3,3,3h13.4c1.7,0,3-1.3,3-3v-1.1h1.8c0.5,0,0.8,0.4,0.8,0.8v17.4
		c0,4.4,2.3,8.5,6.1,10.8c2,1.2,4.2,1.8,6.5,1.8h55.5c1.3,0,2.5-0.2,3.7-0.6c5.3-1.6,8.8-6.4,8.8-12c0-0.2,0-0.5,0-0.8V66h1.1
		c1.7,0,3-1.3,3-3V49.7c0-1.7-1.3-3-3-3h-1.1V29.9c0-0.5,0.4-0.8,0.8-0.8h32.7v0.7c0,1.7,1.3,3,3,3h13.3c1.7,0,3-1.3,3-3v-27
		C294.9,1.3,293.5,0,291.9,0z M291.9,30.8h-13.3c-0.5,0-0.8-0.4-0.8-0.8V3c0-0.5,0.4-0.8,0.8-0.8h13.3c0.5,0,0.8,0.4,0.8,0.8v27
		C292.7,30.4,292.3,30.8,291.9,30.8z M244,49.9v13.3c0,0.5-0.4,0.8-0.8,0.8h-27c-0.5,0-0.8-0.4-0.8-0.8V49.9c0-0.5,0.4-0.8,0.8-0.8
		h27C243.6,49.1,244,49.4,244,49.9z M155.7,79.4h-13.3c-0.5,0-0.8-0.4-0.8-0.8v-27c0-0.5,0.4-0.8,0.8-0.8h13.3
		c0.5,0,0.8,0.4,0.8,0.8v27C156.5,79,156.1,79.4,155.7,79.4z M103.8,158.4H90.5c-0.5,0-0.8-0.4-0.8-0.8v-27c0-0.5,0.4-0.8,0.8-0.8
		h13.3c0.5,0,0.8,0.4,0.8,0.8v27C104.6,158,104.2,158.4,103.8,158.4z M16.3,158.4H3c-0.5,0-0.8-0.4-0.8-0.8v-27
		c0-0.5,0.4-0.8,0.8-0.8h13.3c0.5,0,0.8,0.4,0.8,0.8v27C17.1,158,16.8,158.4,16.3,158.4z M19.3,154.4v-20.7h68.1v20.7H19.3z
		 M136.2,75.3c-1.7,0-3,1.3-3,3V144v0.1v0.1c0,5.7-4.6,10.4-10.4,10.4h-16.1v-20.7h2.7c1.7,0,3-1.3,3-3V65.1l0,0l0,0
		c0-5.7,4.7-10.3,10.4-10.3h16.5v20.7h-3.1V75.3z M239.8,95c0,0.3,0,0.5,0,0.7c0,4.6-2.9,8.5-7.3,9.9c-1,0.3-2,0.5-3.1,0.5h-55.5
		c-1.9,0-3.8-0.5-5.4-1.5c-3.1-1.9-5.1-5.3-5.1-8.9V78.3c0-1.7-1.3-3-3-3h-1.7V54.6h15.2c1.4,0,2.8,0.3,4.1,0.8
		c3.9,1.6,6.3,5.4,6.3,9.5v17.4c0,1.7,1.3,3,3,3h28.8c1.7,0,3-1.3,3-3V66.2h20.7V95L239.8,95z M242.8,27c-1.7,0-3,1.3-3,3v16.8
		h-20.7V16.6c0-5.7,4.6-10.4,10.4-10.4h0.1h0.1h0.1h0.1h45.7v20.7L242.8,27L242.8,27z"/>
</g>
</svg>
